<?xml version="1.0" encoding="utf-8"?>
<!-- Generator: Adobe Illustrator 21.0.2, SVG Export Plug-In . SVG Version: 6.00 Build 0)  -->
<svg version="1.1" id="Layer_1" xmlns="http://www.w3.org/2000/svg" xmlns:xlink="http://www.w3.org/1999/xlink" x="0px" y="0px"
	 viewBox="0 0 352.3 256" style="enable-background:new 0 0 352.3 256;" xml:space="preserve">
<style type="text/css">
	.st0{fill:#DDDDDD;}
	.st1{fill:#BBBBBB;}
	.st2{fill-rule:evenodd;clip-rule:evenodd;fill:#DDDDDD;}
	.st3{fill-rule:evenodd;clip-rule:evenodd;fill:#FFFFFF;}
	.st4{fill-rule:evenodd;clip-rule:evenodd;fill:#BBBBBB;}
	.st5{opacity:0.4;}
	.st6{fill-rule:evenodd;clip-rule:evenodd;fill:#8AD1C0;}
	.st7{fill:#47A4DF;}
	.st8{fill:#FFFFFF;}
	.st9{fill-rule:evenodd;clip-rule:evenodd;fill:#202325;}
	.st10{fill:#7289DA;}
</style>
<g>
	<g>
		<path class="st0" d="M199.9,22c0-0.5-0.2-0.9-0.6-1.2l-8.2-5.6L200,2.3c0.4-0.6,0.3-1.3-0.1-1.8c-0.5-0.5-1.2-0.6-1.8-0.2
			l-23.8,14.6c-0.4,0.2-0.7,0.7-0.7,1.2c0,0.5,0.2,0.9,0.6,1.2l8.2,5.6l-8.8,12.8c-0.4,0.6-0.3,1.3,0.1,1.8c0.1,0.1,0.1,0.1,0.2,0.2
			c0.5,0.3,1.1,0.3,1.5,0l23.8-14.6C199.6,22.9,199.9,22.4,199.9,22z"/>
		<path class="st1" d="M149.7,23.1l23.8,14.6c0.5,0.3,1.1,0.3,1.5,0c0.1-0.1,0.2-0.1,0.2-0.2c0.5-0.5,0.5-1.2,0.1-1.8l-8.8-12.8
			l8.2-5.6c0.4-0.3,0.6-0.7,0.6-1.2c0-0.5-0.3-0.9-0.7-1.2L150.9,0.3c-0.6-0.3-1.3-0.3-1.8,0.2c-0.5,0.5-0.5,1.2-0.1,1.8l8.8,12.8
			l-8.2,5.6c-0.4,0.3-0.6,0.7-0.6,1.2C149.1,22.4,149.3,22.9,149.7,23.1z"/>
		<path class="st2" d="M175.6,14.5c83.4,0,149.9,38.4,151,120.8c1,80.4-67.6,120.8-151,120.8s-150.7-38-151-120.8
			C24.3,51.3,92.2,14.5,175.6,14.5z"/>
		<g>
			<path class="st1" d="M108.8,23.9c-49.1,15.4-85,51.4-84.7,111.3c0.2,64.2,40.8,101.5,97.9,115c-49.7-66.7-33.3-127.3-12.1-167.4
				c9.4-17.8,21.8-33.9,36.3-47.8c7.3-7,16.8-11.4,26.9-12.4l0,0c3.7-0.4,2.6-4.8,2.4-6c-0.2-1.1-0.5-1.6-1.4-2
				c-0.9-0.4-16.5,0.5-19.8,0.8C129.9,17.3,112.2,22.8,108.8,23.9z"/>
			<path class="st1" d="M112.3,22.5L112.3,22.5C112.3,22.5,112.3,22.5,112.3,22.5C112.3,22.5,112.3,22.5,112.3,22.5z"/>
		</g>
		<path class="st3" d="M276,103.1c0,0-15.5-19.9-42-10.6c0,0-0.1,0-0.1,0c-1.3,0.6-35.1,16.2-39.1,18.3c0,0-8.5,4-19.1,4.5
			c-10.6-0.5-19.1-4.5-19.1-4.5c-4-2.1-37.8-17.7-39.1-18.3c0,0-0.1,0-0.1,0c-26.5-9.3-42,10.6-42,10.6
			c-16.8,17.9-16.6,60.8-16.6,60.8c-0.8,19.7,30.3,25.1,30.3,25.1c30.3,7.1,81.1,6.8,86.6,6.8c5.5,0,56.3,0.3,86.6-6.8
			c0,0,31.1-5.4,30.3-25.1C292.6,163.9,292.7,121,276,103.1z"/>
		<path class="st4" d="M18.6,103.1c0,0-10.7,35.8,0,64.2c0,0,3.6,7.5-1.9,5.7c0,0-17.2-5.5-17-37.7c0,0-2-25.1,13.2-34
			C12.9,101.2,21.6,95.6,18.6,103.1z"/>
		<path class="st2" d="M338.6,101.2c15.2,8.9,13.2,34,13.2,34c0.2,32.2-17,37.7-17,37.7c-5.5,1.9-1.9-5.7-1.9-5.7
			c10.7-28.4,0-64.2,0-64.2C330,95.6,338.6,101.2,338.6,101.2z"/>
		<g class="st5">
			<path class="st1" d="M108.8,23.9c-49.1,15.4-85,51.4-84.7,111.3c0.2,64.2,40.8,101.5,97.9,115c-49.7-66.7-33.3-127.3-12.1-167.4
				c9.4-17.8,21.8-33.9,36.3-47.8c7.3-7,16.8-11.4,26.9-12.4l0,0c3.7-0.4,2.6-4.8,2.4-6c-0.2-1.1-0.5-1.6-1.4-2
				c-0.9-0.4-16.5,0.5-19.8,0.8C129.9,17.3,112.2,22.8,108.8,23.9z"/>
			<path class="st1" d="M112.3,22.5L112.3,22.5C112.3,22.5,112.3,22.5,112.3,22.5C112.3,22.5,112.3,22.5,112.3,22.5z"/>
		</g>
		<g>
			<circle class="st6" cx="115.7" cy="148.4" r="18.9"/>
			<circle class="st6" cx="234.6" cy="148.4" r="18.9"/>
			<g>
				<path class="st7" d="M215.7,154.7c-2.2,0-4.4-0.6-6.4-1.6l-19.5-10.7c-2.2-1.2-4.8-1.3-7-0.2l-13.6,6.7
					c-3.7,1.8-8.1,1.8-11.8-0.1l-9.3-4.7c-1.8-0.9-4-1.1-6-0.4l-17.5,6.3c-2.7,1-5.7,1-8.5,0.2L93.8,143c-1.2-0.4-2.6-0.5-3.8-0.2
					l-30.5,6.5l0.7-5.9l28.5-6.1c2.2-0.5,4.6-0.3,6.7,0.3l22.4,7.1c1.6,0.5,3.3,0.5,4.9-0.1l17.5-6.3c3.4-1.2,7.2-1,10.4,0.6
					l9.3,4.7c2.1,1.1,4.6,1.1,6.7,0l13.6-6.7c3.9-1.9,8.4-1.8,12.2,0.3l19.5,10.7c1.5,0.8,3.2,1.1,4.9,0.8l37.6-6.3
					c3-0.5,6.1,0,8.7,1.6l6.3,3.6c1.7,1,3.7,1.2,5.7,0.7l15.9-4.2l0.7,5.7l-15.2,4c-3.4,0.9-6.9,0.4-9.9-1.3l-6.3-3.6
					c-1.5-0.9-3.3-1.2-5-0.9l-37.6,6.3C217.1,154.6,216.4,154.7,215.7,154.7z"/>
			</g>
			<path class="st8" d="M133,140.9l-10.3,3.7c-1.6,0.6-3.3,0.6-4.9,0.1l-18.5-5.9c-1,1.6-1.7,3.4-2.1,5.3l18.9,6
				c2.8,0.9,5.8,0.8,8.5-0.2l9.8-3.5C134.3,144.5,133.8,142.7,133,140.9z"/>
			<path class="st3" d="M253.5,148.4c0-1.9-0.3-3.7-0.8-5.5l-35.7,6c-0.4,0.1-0.8,0.1-1.2,0.1c0.1,1.9,0.4,3.8,1,5.6
				c0.4,0,0.7,0,1.1-0.1l35.6-6C253.5,148.4,253.5,148.4,253.5,148.4z"/>
		</g>
	</g>
	<path class="st0" d="M199.9,22c0-0.5-0.2-0.9-0.6-1.2l-8.2-5.6L200,2.3c0.4-0.6,0.3-1.3-0.1-1.8c-0.5-0.5-1.2-0.6-1.8-0.2
		l-23.8,14.6c-0.4,0.2-0.7,0.7-0.7,1.2c0,0.5,0.2,0.9,0.6,1.2l8.2,5.6l-8.8,12.8c-0.4,0.6-0.3,1.3,0.1,1.8c0.1,0.1,0.1,0.1,0.2,0.2
		c0.5,0.3,1.1,0.3,1.5,0l23.8-14.6C199.6,22.9,199.9,22.4,199.9,22z"/>
	<path class="st1" d="M149.7,23.1l23.8,14.6c0.5,0.3,1.1,0.3,1.5,0c0.1-0.1,0.2-0.1,0.2-0.2c0.5-0.5,0.5-1.2,0.1-1.8l-8.8-12.8
		l8.2-5.6c0.4-0.3,0.6-0.7,0.6-1.2c0-0.5-0.3-0.9-0.7-1.2L150.9,0.3c-0.6-0.3-1.3-0.3-1.8,0.2c-0.5,0.5-0.5,1.2-0.1,1.8l8.8,12.8
		l-8.2,5.6c-0.4,0.3-0.6,0.7-0.6,1.2C149.1,22.4,149.3,22.9,149.7,23.1z"/>
	<path class="st2" d="M175.6,14.5c83.4,0,149.9,38.4,151,120.8c1,80.4-67.6,120.8-151,120.8s-150.7-38-151-120.8
		C24.3,51.3,92.2,14.5,175.6,14.5z"/>
	<g>
		<path class="st1" d="M108.8,23.9c-49.1,15.4-85,51.4-84.7,111.3c0.2,64.2,40.8,101.5,97.9,115c-49.7-66.7-33.3-127.3-12.1-167.4
			c9.4-17.8,21.8-33.9,36.3-47.8c7.3-7,16.8-11.4,26.9-12.4l0,0c3.7-0.4,2.6-4.8,2.4-6c-0.2-1.1-0.5-1.6-1.4-2
			c-0.9-0.4-16.5,0.5-19.8,0.8C129.9,17.3,112.2,22.8,108.8,23.9z"/>
		<path class="st1" d="M112.3,22.5L112.3,22.5C112.3,22.5,112.3,22.5,112.3,22.5C112.3,22.5,112.3,22.5,112.3,22.5z"/>
	</g>
	<path class="st3" d="M276,103.1c0,0-15.5-19.9-42-10.6c0,0-0.1,0-0.1,0c-1.3,0.6-35.1,16.2-39.1,18.3c0,0-8.5,4-19.1,4.5
		c-10.6-0.5-19.1-4.5-19.1-4.5c-4-2.1-37.8-17.7-39.1-18.3c0,0-0.1,0-0.1,0c-26.5-9.3-42,10.6-42,10.6
		c-16.8,17.9-16.6,60.8-16.6,60.8c-0.8,19.7,30.3,25.1,30.3,25.1c30.3,7.1,81.1,6.8,86.6,6.8c5.5,0,56.3,0.3,86.6-6.8
		c0,0,31.1-5.4,30.3-25.1C292.6,163.9,292.7,121,276,103.1z"/>
	<path class="st4" d="M18.6,103.1c0,0-10.7,35.8,0,64.2c0,0,3.6,7.5-1.9,5.7c0,0-17.2-5.5-17-37.7c0,0-2-25.1,13.2-34
		C12.9,101.2,21.6,95.6,18.6,103.1z"/>
	<path class="st2" d="M338.6,101.2c15.2,8.9,13.2,34,13.2,34c0.2,32.2-17,37.7-17,37.7c-5.5,1.9-1.9-5.7-1.9-5.7
		c10.7-28.4,0-64.2,0-64.2C330,95.6,338.6,101.2,338.6,101.2z"/>
	<g class="st5">
		<path class="st1" d="M108.8,23.9c-49.1,15.4-85,51.4-84.7,111.3c0.2,64.2,40.8,101.5,97.9,115c-49.7-66.7-33.3-127.3-12.1-167.4
			c9.4-17.8,21.8-33.9,36.3-47.8c7.3-7,16.8-11.4,26.9-12.4l0,0c3.7-0.4,2.6-4.8,2.4-6c-0.2-1.1-0.5-1.6-1.4-2
			c-0.9-0.4-16.5,0.5-19.8,0.8C129.9,17.3,112.2,22.8,108.8,23.9z"/>
		<path class="st1" d="M112.3,22.5L112.3,22.5C112.3,22.5,112.3,22.5,112.3,22.5C112.3,22.5,112.3,22.5,112.3,22.5z"/>
	</g>
	<g>
		<circle class="st6" cx="115.7" cy="148.4" r="18.9"/>
		<circle class="st6" cx="234.6" cy="148.4" r="18.9"/>
		<g>
			<path class="st7" d="M215.7,154.7c-2.2,0-4.4-0.6-6.4-1.6l-19.5-10.7c-2.2-1.2-4.8-1.3-7-0.2l-13.6,6.7
				c-3.7,1.8-8.1,1.8-11.8-0.1l-9.3-4.7c-1.8-0.9-4-1.1-6-0.4l-17.5,6.3c-2.7,1-5.7,1-8.5,0.2L93.8,143c-1.2-0.4-2.6-0.5-3.8-0.2
				l-30.5,6.5l0.7-5.9l28.5-6.1c2.2-0.5,4.6-0.3,6.7,0.3l22.4,7.1c1.6,0.5,3.3,0.5,4.9-0.1l17.5-6.3c3.4-1.2,7.2-1,10.4,0.6l9.3,4.7
				c2.1,1.1,4.6,1.1,6.7,0l13.6-6.7c3.9-1.9,8.4-1.8,12.2,0.3l19.5,10.7c1.5,0.8,3.2,1.1,4.9,0.8l37.6-6.3c3-0.5,6.1,0,8.7,1.6
				l6.3,3.6c1.7,1,3.7,1.2,5.7,0.7l15.9-4.2l0.7,5.7l-15.2,4c-3.4,0.9-6.9,0.4-9.9-1.3l-6.3-3.6c-1.5-0.9-3.3-1.2-5-0.9l-37.6,6.3
				C217.1,154.6,216.4,154.7,215.7,154.7z"/>
		</g>
		<path class="st8" d="M133,140.9l-10.3,3.7c-1.6,0.6-3.3,0.6-4.9,0.1l-18.5-5.9c-1,1.6-1.7,3.4-2.1,5.3l18.9,6
			c2.8,0.9,5.8,0.8,8.5-0.2l9.8-3.5C134.3,144.5,133.8,142.7,133,140.9z"/>
		<path class="st3" d="M253.5,148.4c0-1.9-0.3-3.7-0.8-5.5l-35.7,6c-0.4,0.1-0.8,0.1-1.2,0.1c0.1,1.9,0.4,3.8,1,5.6
			c0.4,0,0.7,0,1.1-0.1l35.6-6C253.5,148.4,253.5,148.4,253.5,148.4z"/>
	</g>
	<g>
		<path class="st9" d="M276.2,103.1c0,0-15.5-19.9-42-10.6c0,0-0.1,0-0.1,0c-1.3,0.6-35.1,16.2-39.1,18.3c0,0-8.5,4-19.1,4.5
			c-10.6-0.5-19.1-4.5-19.1-4.5c-4-2.1-37.8-17.7-39.1-18.3c0,0-0.1,0-0.1,0c-26.5-9.3-42,10.6-42,10.6
			c-16.8,17.9-16.6,60.8-16.6,60.8C58.1,183.6,89.2,189,89.2,189c30.3,7.1,81.1,6.8,86.6,6.8c5.5,0,56.3,0.3,86.6-6.8
			c0,0,31.1-5.4,30.3-25.1C292.8,163.9,292.9,121,276.2,103.1z"/>
		<g>
			<path class="st10" d="M215.9,154.7c-2.2,0-4.4-0.6-6.4-1.6L190,142.3c-2.2-1.2-4.8-1.3-7-0.2l-13.6,6.7
				c-3.7,1.8-8.1,1.8-11.8-0.1l-9.3-4.7c-1.8-0.9-4-1.1-6-0.4l-17.5,6.3c-2.7,1-5.7,1-8.5,0.2L94,143c-1.2-0.4-2.6-0.5-3.8-0.2
				l-30.5,6.5l0.7-5.9l28.5-6.1c2.2-0.5,4.6-0.3,6.7,0.3l22.4,7.1c1.6,0.5,3.3,0.5,4.9-0.1l17.5-6.3c3.4-1.2,7.2-1,10.4,0.6l9.3,4.7
				c2.1,1.1,4.6,1.1,6.7,0l13.6-6.7c3.9-1.9,8.4-1.8,12.2,0.3l19.5,10.7c1.5,0.8,3.2,1.1,4.9,0.8l37.6-6.3c3-0.5,6.1,0,8.7,1.6
				l6.3,3.6c1.7,1,3.7,1.2,5.7,0.7l15.9-4.2l0.7,5.7l-15.2,4c-3.4,0.9-6.9,0.4-9.9-1.3l-6.3-3.6c-1.5-0.9-3.3-1.2-5-0.9l-37.6,6.3
				C217.3,154.6,216.6,154.7,215.9,154.7z"/>
		</g>
		<circle class="st6" cx="115.9" cy="148.4" r="18.9"/>
		<circle class="st6" cx="234.8" cy="148.4" r="18.9"/>
		<path class="st8" d="M133.2,141l-10.3,3.7c-1.6,0.6-3.3,0.6-4.9,0.1l-18.5-5.9c-1,1.6-1.7,3.4-2.1,5.3l18.9,6
			c2.8,0.9,5.8,0.8,8.5-0.2l9.8-3.5C134.4,144.5,134,142.7,133.2,141z"/>
		<path class="st3" d="M253.6,148.4c0-1.9-0.3-3.7-0.8-5.5l-35.7,6c-0.4,0.1-0.8,0.1-1.2,0.1c0.1,1.9,0.4,3.8,1,5.6
			c0.4,0,0.7,0,1.1-0.1l35.6-6C253.6,148.5,253.6,148.4,253.6,148.4z"/>
	</g>
</g>
</svg>
